<?xml version="1.0" standalone="no"?>
<!DOCTYPE svg PUBLIC "-//W3C//DTD SVG 20010904//EN"
 "http://www.w3.org/TR/2001/REC-SVG-20010904/DTD/svg10.dtd">
<svg version="1.0" xmlns="http://www.w3.org/2000/svg"
 width="200.000000pt" height="200.000000pt" viewBox="0 0 200.000000 200.000000"
 preserveAspectRatio="xMidYMid meet">
<metadata>
Created by potrace 1.11, written by Peter Selinger 2001-2013
</metadata>
<g transform="translate(0.000000,200.000000) scale(0.100000,-0.100000)"
fill="#000000" stroke="none">
<path d="M801 1761 c-6 -10 -9 -20 -7 -22 2 -2 7 -22 11 -44 l7 -40 -24 21
c-12 12 -29 19 -35 17 -16 -6 -17 -35 -1 -51 9 -9 9 -12 1 -12 -7 0 -14 4 -17
9 -9 14 -65 19 -81 7 -19 -15 -9 -27 47 -55 26 -13 61 -38 79 -55 34 -33 64
-75 58 -80 -2 -1 -25 -14 -50 -29 -59 -33 -105 -86 -138 -157 -24 -50 -26 -66
-25 -175 0 -66 3 -129 6 -140 4 -11 11 -38 16 -60 22 -97 86 -311 95 -324 19
-23 60 -33 157 -36 l95 -4 1 -33 c9 -196 9 -191 -16 -178 -23 12 -66 8 -97 -9
-53 -28 -73 -116 -35 -154 l21 -20 -21 -56 c-11 -31 -25 -62 -31 -69 -7 -9 35
-12 206 -12 l216 0 -10 32 c-19 68 -8 98 35 98 16 0 42 -47 50 -93 7 -37 7
-37 57 -37 l50 0 -7 38 c-4 20 -18 61 -31 91 -20 46 -22 60 -13 86 12 35 6 85
-12 115 -22 34 -83 41 -126 14 -13 -9 -40 -14 -64 -12 -47 3 -45 -1 -53 130
-4 84 -4 88 18 93 145 31 236 61 354 115 l62 29 -5 53 c-14 157 -35 331 -39
338 -2 3 -6 30 -10 60 -8 74 -52 265 -66 292 -16 31 -28 40 -72 61 -63 29
-180 39 -277 24 -19 -3 -57 -9 -84 -13 -48 -7 -48 -7 -36 15 6 12 13 32 15 43
7 33 52 96 75 103 26 8 27 51 1 65 -16 8 -26 5 -52 -17 -17 -15 -38 -42 -45
-60 -8 -18 -17 -33 -20 -33 -9 0 0 53 13 79 23 47 -14 75 -47 34 -11 -14 -20
-36 -20 -49 0 -29 -19 -32 -21 -4 -1 11 -3 25 -4 30 -1 6 -3 21 -4 35 -1 30
-35 35 -50 6z"/>
</g>
</svg>
